<svg xmlns="http://www.w3.org/2000/svg" width="145" height="50" viewBox="0 0 145 50">
  <g fill="none" fill-rule="evenodd" transform="translate(1 1)">
    <path fill="#333" stroke="#737373" d="M134.215601,48 L8.9370088,48 C2.2001173,48 0.137947214,45.9927273 0.137947214,39.2558358 L0.137947214,8.8511437 C0.140762463,2.11143695 2.20293255,0 8.93982405,0 L134.218416,0 C140.955308,0 143.017478,2.11143695 143.017478,8.85395894 L143.017478,39.258651 C143.014663,45.9927273 140.952493,48 134.215601,48 Z"/>
    <path fill="#FFF" d="M37.0205279,29.2039883 C36.3434604,30.7031085 36.0197067,31.3731378 35.1497947,32.6977126 C33.933607,34.548739 32.2205279,36.8530205 30.0992375,36.8713196 C28.2130205,36.8882111 27.7287977,35.643871 25.1725513,35.6579472 C22.616305,35.6720235 22.0757771,36.8938416 20.1909677,36.8755425 C18.0682698,36.8558358 16.4452786,34.7753666 15.2290909,32.9243402 C11.8240469,27.7527273 11.4763636,21.6774194 13.5723167,18.4525513 C15.0615836,16.1581232 17.4123167,14.8152493 19.6251026,14.8152493 C21.8773021,14.8152493 23.2849267,16.0497361 25.1486217,16.0497361 C26.9531965,16.0497361 28.0525513,14.8138416 30.6538416,14.8138416 C32.6245161,14.8138416 34.7035777,15.8836364 36.1872141,17.7360704 C31.323871,20.4007038 32.1135484,27.3473314 37.0317889,29.2039883"/>
    <path fill="#FFF" d="M28.6775367 12.7474487C29.6220528 11.5340762 30.3399413 9.82099707 30.0851613 8.06991202 28.5367742 8.1768915 26.7350147 9.15800587 25.6807038 10.4389443 24.7235191 11.6016422 23.9338416 13.3259824 24.2421114 15.0010557 25.931261 15.0531378 27.671085 14.0466862 28.6831672 12.7488563M130.864047 30.9677419L123.730205 30.9677419C123.758358 31.9530792 124.103226 32.8173607 124.767625 33.3747801 125.36868 33.8758944 126.145689 34.1208211 127.101466 34.1208211 128.087685 34.1341793 129.067444 33.9598195 129.988504 33.6070381L130.362933 35.2609971C129.353666 35.7058065 128.152962 35.9197654 126.769267 35.9197654 125.112962 35.9197654 123.81044 35.4322581 122.861701 34.4572434 121.912962 33.4822287 121.438123 32.1717302 121.437185 30.5257478 121.437185 28.9069795 121.880587 27.5697361 122.758944 26.4886804 123.687977 25.3456891 124.934663 24.7741935 126.499003 24.7741935 128.046452 24.7741935 129.214311 25.3461584 130.002581 26.490088 130.631789 27.4036364 130.949912 28.5395894 130.949912 29.8768328 130.955078 30.2423418 130.926333 30.6075421 130.864047 30.9677419zM120.633431 27.1066276C120.394746 27.0598849 120.151636 27.0395865 119.908504 27.0460997 119.070968 27.0460997 118.437537 27.3614076 117.980059 27.9920235 117.583109 28.5550733 117.395894 29.246217 117.395894 30.1034604L117.395894 35.7536657 115.002933 35.7536657 115.002933 28.3819355C115.002933 27.1558944 115.002933 26.0410557 114.956481 25.0557185L117.027097 25.0557185 117.115777 27.026393 117.180528 27.026393C117.403041 26.3632905 117.816919 25.7809222 118.369971 25.3527273 118.857785 24.9830917 119.454135 24.7851332 120.066158 24.7896774 120.254971 24.788417 120.443484 24.8049119 120.629208 24.8389443L120.633431 27.1066276zM112.115894 34.3375953C111.12868 35.4214663 109.821935 35.963871 108.19566 35.9648094 106.620997 35.9648094 105.366804 35.4435191 104.433079 34.4009384 103.501232 33.3607038 103.036716 32.0417595 103.036716 30.4595894 103.036716 28.8014076 103.517185 27.4435191 104.478123 26.3859238 105.440938 25.3245748 106.730323 24.802346 108.364575 24.802346 109.942522 24.802346 111.203754 25.3189443 112.165161 26.366217 113.073079 27.3740762 113.52915 28.6859824 113.52915 30.285044 113.522111 31.9305572 113.05478 33.2762463 112.115894 34.3375953zM102.334311 26.744868L99.659824 26.744868 99.659824 32.002346C99.659824 33.3226979 100.159531 33.9730205 101.085748 33.9730205 101.446644 33.981735 101.80727 33.9467595 102.159765 33.8688563L102.235777 35.6706158C101.640517 35.8668097 101.015407 35.9568598 100.388974 35.9366569 99.4543109 35.9366569 98.722346 35.655132 98.1958944 35.0765982 97.6694428 34.4980645 97.4076246 33.543695 97.4076246 32.1923754L97.4076246 26.744868 95.8592375 26.744868 95.8592375 25.0557185 97.4076246 25.0557185 97.4076246 23.0540762 99.659824 22.3502639 99.659824 25.0557185 102.334311 25.0557185 102.334311 26.744868zM93.9645748 34.6416422C92.9933138 35.5096774 91.6448094 35.9427566 89.9190616 35.9408798 88.3181232 35.9408798 87.0353079 35.6330792 86.0706158 35.017478L86.6238123 33.0355425C87.6623614 33.6503021 88.8487718 33.9705064 90.0556012 33.9617595 90.9550733 33.9617595 91.6518475 33.757654 92.1515543 33.3564809 92.6474905 32.9645384 92.9267208 32.3595393 92.9032258 31.7278592 92.9135975 31.1601769 92.6913499 30.6129493 92.2880938 30.2132551 91.8728446 29.8022287 91.1957771 29.4235777 90.24 29.0674487 87.6424633 28.1008798 86.3432258 26.6843402 86.3422874 24.8178299 86.3119362 23.6597373 86.8191656 22.5527717 87.716129 21.8195894 88.6339003 21.0425806 89.850088 20.653607 91.3646921 20.6526686 92.7150733 20.6526686 93.841173 20.8872727 94.7429912 21.3564809L94.1419355 23.2961877C93.2651159 22.831618 92.2850666 22.5962899 91.2929032 22.6120821 90.4483284 22.6120821 89.7965982 22.8260411 89.3222287 23.2272141 88.9394751 23.5697549 88.7229921 24.0606891 88.7282111 24.5743109 88.7194684 25.1395189 88.9712402 25.6773243 89.4109091 26.03261 89.8087977 26.3835777 90.5276246 26.7641056 91.56739 27.1741935 92.8497361 27.6851613 93.7858065 28.2904399 94.391085 28.9829912 94.9963636 29.6755425 95.2947801 30.5313783 95.2947801 31.5575367 95.2821114 32.8215836 94.8401173 33.8519648 93.9645748 34.6416422zM80.3542522 34.5585924C79.5153086 35.4790482 78.3196332 35.9922136 77.0744868 35.966217 75.6570088 35.966217 74.6041056 35.4608798 74.0410557 34.4431672L74.0410557 40.1173021 71.6480938 40.1173021 71.6480938 28.5325513C71.6480938 27.3881525 71.5889736 26.1818182 71.531261 25.0557185L73.6187683 25.0557185 73.7595308 26.744868 73.8003519 26.744868C74.5984751 25.4780059 75.7991789 24.8164223 77.415132 24.8164223 78.6427366 24.7950096 79.8107298 25.3446841 80.5766569 26.3042815 81.4212317 27.3008798 81.8435191 28.6146628 81.8435191 30.2456305 81.8421114 32.0685044 81.3466276 33.5014663 80.3542522 34.5585924zM68.5907331 34.5585924C67.7403889 35.4796307 66.5361018 35.9920933 65.2828152 35.966217 63.8611144 35.966217 62.9208211 35.4608798 62.2170088 34.4431672L62.2170088 40.1173021 59.8240469 40.1173021 59.8240469 28.5325513C59.8240469 27.3881525 59.8240469 26.1818182 59.7649267 25.0557185L61.8580645 25.0557185 61.9889736 26.744868 62.0312023 26.744868C62.8279179 25.4780059 64.031437 24.8164223 65.6487977 24.8164223 66.9156598 24.8164223 67.9629326 25.3034604 68.8131378 26.3042815 69.6633431 27.3051026 70.08 28.6141935 70.08 30.2456305 70.0771848 32.0685044 69.5831085 33.5014663 68.5907331 34.5585924zM55.8658065 35.7536657L54.4750733 31.3900293 49.6525513 31.3900293 48.3293842 35.7536657 45.8646334 35.7536657 50.6407038 20.8328446 53.5967155 20.8328446 58.402346 35.7536657 55.8658065 35.7536657zM126.32305 26.422522C125.546041 26.422522 124.915425 26.7716129 124.428387 27.4078592 124.024736 27.9519211 123.780984 28.5978653 123.724575 29.2729619L128.680821 29.2729619C128.710824 28.6265314 128.550804 27.9854719 128.220528 27.4289736 127.812317 26.7758358 127.173255 26.422522 126.32305 26.422522zM52.0539589 22.8035191L52.0117302 22.8035191C51.862522 23.5073314 51.6302639 24.4053959 51.3079179 25.6412903L50.0706158 29.5601173 54.0527859 29.5601173 52.8028152 25.6412903C52.6704985 25.2429326 52.4185337 24.3519062 52.0539589 22.8035191zM76.6409384 26.6871554C76.0567121 26.6852862 75.4908825 26.8913599 75.0446921 27.2685044 74.5736256 27.662249 74.2500699 28.204155 74.1269208 28.8056305 74.0674759 29.0440787 74.0381564 29.2890383 74.0396481 29.5347801L74.0396481 31.3168328C74.0396481 32.0966569 74.253607 32.7568328 74.733607 33.2875073 75.1994902 33.8166348 75.8771587 34.1103083 76.5818182 34.0884457 77.4826979 34.0884457 78.1738416 33.7449853 78.6735484 33.0538416 79.1732551 32.3626979 79.4224047 31.4533724 79.4224047 30.318827 79.4224047 29.2785924 79.1845161 28.4185337 78.7185924 27.7442815 78.2474907 27.0653834 77.4670642 26.6682965 76.6409384 26.6871554zM108.277302 26.5393548C107.325748 26.5393548 106.598006 26.9616422 106.101114 27.806217 105.670381 28.5100293 105.459238 29.3546041 105.459238 30.3723167 105.459238 31.357654 105.670381 32.2022287 106.101114 32.9060411 106.609736 33.7553079 107.329501 34.1775953 108.260411 34.1729032 109.165513 34.1729032 109.880587 33.7506158 110.391554 32.8750733 110.849404 32.1077461 111.079816 31.2261265 111.055953 30.3329032 111.055953 29.347566 110.843402 28.5029912 110.419707 27.8076246 109.91437 26.9616422 109.203519 26.5393548 108.277302 26.5393548zM64.8731965 26.6871554C64.2895183 26.6859882 63.7243663 26.8919968 63.2783578 27.2685044 62.7994017 27.6598945 62.4665958 28.2015101 62.3338416 28.8056305 62.2674427 29.0434787 62.2282477 29.2880934 62.2170088 29.5347801L62.2170088 31.3168328C62.199266 32.041754 62.4579288 32.7462831 62.9405279 33.2875073 63.4125927 33.8179989 64.0958853 34.1114279 64.8056305 34.0884457 65.6994721 34.0884457 66.4046921 33.7449853 66.9029912 33.0538416 67.4012903 32.3626979 67.6504399 31.4533724 67.6504399 30.318827 67.6504399 29.2785924 67.4195894 28.4185337 66.9466276 27.7442815 66.4775676 27.0652653 65.6982485 26.6679342 64.8731965 26.6871554z"/>
    <path fill="#FFF" fill-rule="nonzero" d="M49.462522,15.0883284 L48.7671554,17.3785337 L47.2441056,17.3785337 L49.829912,9.29032258 L51.7133138,9.29032258 L54.3399413,17.3743109 L52.7605865,17.3743109 L52.0286217,15.0841056 L49.462522,15.0883284 Z M51.7766569,13.9734897 L51.1404106,11.9831085 C50.9841642,11.4918475 50.8588856,10.9400587 50.7321994,10.4713196 L50.7082698,10.4713196 C50.5886217,10.938651 50.4689736,11.5031085 50.3239883,11.9831085 L49.7004106,13.9734897 L51.7766569,13.9734897 Z"/>
    <path fill="#FFF" d="M56.0234604,11.542522 L56.9707918,14.4985337 C57.1382991,15.0137243 57.2523167,15.483871 57.3663343,15.9610557 L57.4029326,15.9610557 C57.5113196,15.4810557 57.6422287,15.0249853 57.7984751,14.4985337 L58.7218768,11.542522 L60.2815249,11.542522 L58.0504399,17.3827566 L56.5977713,17.3827566 L54.4272141,11.542522 L56.0234604,11.542522 Z"/>
    <path fill="#FFF" fill-rule="nonzero" d="M64.3931965 17.3799413L64.297478 16.732434 64.2608798 16.732434C63.8351571 17.2434119 63.1985497 17.530845 62.5337243 17.5122581 61.3583578 17.5122581 60.7038123 16.6676833 60.7038123 15.7738416 60.7038123 14.298651 62.0114956 13.5554252 64.1693842 13.5666862L64.1693842 13.4709677C64.1693842 13.0866862 64.0131378 12.4518475 62.981349 12.4518475 62.4285272 12.4530962 61.8861177 12.6023074 61.4104399 12.8839883L61.128915 11.9239883C61.7754367 11.5702409 62.5035585 11.3925792 63.2403519 11.4087977 65.111085 11.4087977 65.6516129 12.5968328 65.6516129 13.8679179L65.6516129 15.9793548C65.6443275 16.4500193 65.6725601 16.9205628 65.7360704 17.3869795L64.3931965 17.3799413zM64.2017595 14.5252786C63.1587097 14.501349 62.1635191 14.7293842 62.1635191 15.6161877 62.1635191 16.1919062 62.535132 16.4607625 63.0080938 16.4607625 63.5254343 16.470364 63.9901907 16.1459436 64.1595308 15.6570088 64.1921265 15.5522144 64.2082715 15.4429984 64.20739 15.3332551L64.2017595 14.5252786zM68.7695015 9.90826979C68.7695015 10.3516716 68.4457478 10.6993548 67.9249267 10.6993548 67.7097672 10.7103515 67.499728 10.6313599 67.3451361 10.481307 67.1905442 10.3312541 67.1053302 10.1236614 67.109912 9.90826979 67.109912 9.45115294 67.4804785 9.08058651 67.9375953 9.08058651 68.3947122 9.08058651 68.7652786 9.45115294 68.7652786 9.90826979L68.7695015 9.90826979zM67.1985924 17.3799413L67.1985924 11.542522 68.6920821 11.542522 68.6920821 17.3827566 67.1985924 17.3799413z"/>
    <polygon fill="#FFF" points="70.269 8.868 71.755 8.868 71.755 17.383 70.269 17.383"/>
    <path fill="#FFF" fill-rule="nonzero" d="M76.6367155 17.3799413L76.5409971 16.732434 76.5043988 16.732434C76.0786761 17.2434119 75.4420687 17.530845 74.7772434 17.5122581 73.6018768 17.5122581 72.9473314 16.6676833 72.9473314 15.7738416 72.9473314 14.298651 74.2550147 13.5554252 76.4129032 13.5666862L76.4129032 13.4709677C76.4129032 13.0866862 76.2566569 12.4518475 75.224868 12.4518475 74.6720462 12.4530962 74.1296368 12.6023074 73.6539589 12.8839883L73.372434 11.9239883C74.0189557 11.5702409 74.7470776 11.3925792 75.483871 11.4087977 77.3546041 11.4087977 77.895132 12.5968328 77.895132 13.8679179L77.895132 15.9793548C77.8878465 16.4500193 77.9160791 16.9205628 77.9795894 17.3869795L76.6367155 17.3799413zM76.4452786 14.5252786C75.4022287 14.501349 74.4070381 14.7293842 74.4070381 15.6161877 74.4070381 16.1919062 74.778651 16.4607625 75.2516129 16.4607625 75.7689534 16.470364 76.2337097 16.1459436 76.4030499 15.6570088 76.4356456 15.5522144 76.4517905 15.4429984 76.4509091 15.3332551L76.4452786 14.5252786zM79.3900293 17.3799413C79.4139589 16.9843988 79.4378886 16.3368915 79.4378886 15.7372434L79.4378886 8.86803519 80.9130792 8.86803519 80.9130792 12.3462757 80.9384164 12.3462757C81.2987683 11.7832258 81.933607 11.4102053 82.8091496 11.4102053 84.2364809 11.4102053 85.2556012 12.5982405 85.2443402 14.366217 85.2443402 16.4649853 83.9127273 17.5080352 82.593783 17.5080352 81.8378886 17.5080352 81.1664516 17.2265103 80.7469795 16.500176L80.7230499 16.500176 80.651261 17.3757185 79.3900293 17.3799413zM80.9130792 14.9686804C80.9127463 15.0855534 80.9250166 15.2021216 80.9496774 15.3163636 81.0996915 15.9179907 81.6373414 16.3422074 82.2573607 16.3481525 83.1807625 16.3481525 83.7452199 15.6049267 83.7452199 14.4295601 83.7452199 13.3977713 83.2539589 12.558827 82.2700293 12.558827 81.6384683 12.5771611 81.0999097 13.0218052 80.962346 13.6384751 80.9323478 13.764426 80.9162981 13.8932952 80.9144868 14.0227566L80.9130792 14.9686804z"/>
    <polygon fill="#FFF" points="86.459 8.868 87.946 8.868 87.946 17.383 86.459 17.383"/>
    <path fill="#FFF" fill-rule="nonzero" d="M90.584868 14.8729619C90.6214663 15.9286804 91.4477419 16.3833431 92.3838123 16.3833431 92.9351477 16.3980904 93.484323 16.3087897 94.0025806 16.1201173L94.2179472 17.1392375C93.5674744 17.3873112 92.8758068 17.5095949 92.1797067 17.4995894 90.285044 17.4995894 89.1687977 16.3368915 89.1687977 14.5435777 89.1687977 12.9248094 90.1541349 11.4017595 92.0234604 11.4017595 93.9181232 11.4017595 94.5417009 12.9614076 94.5417009 14.2437537 94.5436946 14.4526019 94.5276822 14.6612334 94.4938416 14.8673314L90.584868 14.8729619zM93.1509677 13.841173C93.1636364 13.3020528 92.9229326 12.4138416 91.9390029 12.4138416 91.0268622 12.4138416 90.6439883 13.2415249 90.5834604 13.841173L93.1509677 13.841173zM103.764457 14.4056305C103.764457 16.5522581 102.252669 17.5122581 100.766217 17.5122581 99.1108504 17.5122581 97.8397654 16.3734897 97.8397654 14.501349 97.8397654 12.5827566 99.0995894 11.4045748 100.861935 11.4045748 102.600352 11.4017595 103.764457 12.6306158 103.764457 14.4056305zM99.3628152 14.4661584C99.3628152 15.5922581 99.9146041 16.4452786 100.814076 16.4452786 101.658651 16.4452786 102.241408 15.6175953 102.241408 14.4422287 102.241408 13.530088 101.833196 12.4870381 100.826745 12.4870381 99.7822874 12.4870381 99.3628152 13.4934897 99.3628152 14.4647507L99.3628152 14.4661584z"/>
    <path fill="#FFF" d="M104.975015 13.2781232C104.975015 12.6066862 104.962346 12.0422287 104.927155 11.5397067L106.22217 11.5397067 106.293959 12.4152493 106.330557 12.4152493C106.725312 11.7706934 107.43449 11.386309 108.190029 11.40739 109.20915 11.40739 110.264868 12.067566 110.264868 13.9143695L110.264868 17.3799413 108.789677 17.3799413 108.789677 14.0762463C108.789677 13.2316716 108.477185 12.6010557 107.674839 12.6010557 107.146047 12.6130044 106.683329 12.9597604 106.523402 13.4639296 106.477444 13.6196126 106.457003 13.7817111 106.462874 13.9439296L106.462874 17.3743109 104.976422 17.3743109 104.975015 13.2781232zM116.007977 9.87167155L116.007977 11.542522 117.415601 11.542522 117.415601 12.6460997 116.007977 12.6460997 116.007977 15.224868C116.007977 15.9286804 116.199413 16.3045161 116.763871 16.3045161 116.958121 16.3063898 117.151748 16.2822456 117.339589 16.2327273L117.363519 17.358827C117.018203 17.4649476 116.657562 17.5125256 116.29654 17.4995894 115.757419 17.4995894 115.301349 17.3194135 115.029677 17.0195894 114.717185 16.6831672 114.573607 16.1567155 114.573607 15.3881525L114.573607 12.6418768 113.729032 12.6418768 113.729032 11.542522 114.573607 11.542522 114.573607 10.2193548 116.007977 9.87167155zM118.521994 8.86803519L120.008446 8.86803519 120.008446 12.3462757 120.032375 12.3462757C120.21532 12.0638806 120.467242 11.8327905 120.76434 11.6748387 121.071175 11.4996865 121.418903 11.4088693 121.772199 11.4116129 122.76739 11.4116129 123.81044 12.0717889 123.81044 13.9453372L123.81044 17.3869795 122.335249 17.3869795 122.335249 14.1058065C122.335249 13.2612317 122.022757 12.6179472 121.20915 12.6179472 120.690957 12.6199129 120.2322 12.9533484 120.070381 13.4456305 120.023545 13.5885517 120.003036 13.7387869 120.009853 13.8890323L120.009853 17.3785337 118.521994 17.3785337 118.521994 8.86803519z"/>
    <path fill="#FFF" fill-rule="nonzero" d="M126.430029,14.8729619 C126.466628,15.9286804 127.292903,16.3833431 128.228974,16.3833431 C128.780309,16.3980904 129.329484,16.3087897 129.847742,16.1201173 L130.063109,17.1392375 C129.412636,17.3873112 128.720968,17.5095949 128.024868,17.4995894 C126.130205,17.4995894 125.013959,16.3368915 125.013959,14.5435777 C125.013959,12.9248094 125.999296,11.4017595 127.868622,11.4017595 C129.763284,11.4017595 130.386862,12.9614076 130.386862,14.2437537 C130.388856,14.4526019 130.372843,14.6612334 130.339003,14.8673314 L126.430029,14.8729619 Z M128.996129,13.841173 C129.008798,13.3020528 128.768094,12.4138416 127.784164,12.4138416 C126.872023,12.4138416 126.48915,13.2415249 126.428622,13.841173 L128.996129,13.841173 Z"/>
  </g>
</svg>
